<?xml version="1.0" encoding="UTF-8"?>
<svg width="1200" height="193.8" version="1.1" xmlns="http://www.w3.org/2000/svg">
<!-- Generator: Sketch 3.3.3 (12081) - http://www.bohemiancoding.com/sketch -->
 <title>SM_logo</title>
 <desc>Created with Sketch.</desc>
 <g transform="matrix(4.1434 0 0 4.1434 7.2205 9.4341)" fill="none" fill-rule="evenodd">
  <g id="SM_logo">
   <g fill="#000">
    <path id="Shape" d="m10.7 14.8c-0.4-3-2.3-4.5-4.4-4.5-1.8 0-3 1-3 2.5 0 4.6 9.4 3.4 9.4 10 0 3-2.6 5.5-5.7 5.5-2 0-3.7-1.3-4.6-1.3-0.7 0-1.1 0.5-1.1 1.2h-0.9v-6.1h0.8c0.8 3.8 3.5 5.2 5.8 5.2 1.8 0 3.1-1.3 3.1-3.1 0-5-9.5-3.7-9.5-9.7 0-2.8 2.5-5.2 5.5-5.2 1.9 0 2.5 0.8 3.7 0.8 0.5 0 0.8-0.2 1.1-0.8h0.8v5.5z"/>
    <path d="m28.6 15.9c0.2-4-2.5-5.6-4.8-5.6-3 0-4.7 2.2-5 5.6zm-9.7 0.9c-0.1 8 4.7 10.1 7.1 10.1 2.5 0 3.8-0.8 6.4-3.8v1.3c-2.2 2.8-4.3 3.8-7.4 3.8-5.6 0-9.7-3.9-9.7-9.3s4-9.7 9-9.7c4.1 0 8 3.4 7.7 7.5 0.1 0.1-13.1 0.1-13.1 0.1z"/>
    <path d="m51.1 15.6h-0.8c-0.8-3.2-3.1-5.3-6.1-5.3-3.5 0-6.1 3.1-6.1 7.4 0 4.9 3.1 9 6.7 9 2.2 0 4.8-1.1 6.7-3.8v1.3c-1.9 2.6-4.7 4-7.9 4-5.3 0-9-3.7-9-9.1 0-5.5 4.1-10 9.3-10 2.7 0 4.1 1 5 1 0.5 0 0.9-0.4 1.2-1h0.9z"/>
    <path d="m72.1 24.4c0 2 0.7 2.5 3.1 2.5v0.8l-6.5 0.4v-3.3h-0.1c-1.8 2.3-3.8 3.5-6.3 3.5-3.5 0-5.9-2.7-5.9-6.1v-9.2c0-1.7-0.6-2.4-3.2-2.4v-0.8l5.8-0.5h0.8v12.8c0 2.5 1.6 4.1 4.1 4.1 1.7 0 3.3-1 4.7-2.9v-9.7c0-2.5-0.4-2.8-3.5-2.8v-0.8l6.1-0.6h0.8z"/>
    <path d="m83.6 24.4c0 2 0.6 2.5 3 2.5v0.8h-9.5v-0.8c2.8 0 3.1-0.7 3.1-3.4v-9.8c0-2.6-0.7-2.9-3.7-2.9v-0.8l6.3-0.5h0.8v3.9c3.4-2.9 4.9-3.9 6.1-3.9 1 0 2.4 0.6 3.3 1.4l-1.4 3.1c-1.4-0.8-3.1-1.6-4.3-1.6-1.1 0-2.2 0.6-3.8 2.2z"/>
    <path d="m101.9 2.2c0 1.2-1 2.2-2.2 2.2s-2.2-1-2.2-2.2 1-2.2 2.2-2.2 2.2 1 2.2 2.2zm-0.5 22.2c0 1.8 0.5 2.5 3 2.5v0.8h-9.8v-0.8c2.8 0 3.4-0.4 3.4-2.5v-11c0-2.5-0.8-2.7-3.4-2.7v-0.8l6-0.5h0.8z"/>
    <path d="m112.7 9.7h6.2v1.3h-6.2v11.6c0 2.5 1.3 3.8 3.2 3.8 1.3 0 2.3-0.5 3.4-1.7l0.5 0.7c-1.6 2-3.4 3-5.4 3-3.1 0-5.2-2.1-5.2-5.2v-12h-3.4v-0.8c2.5-1.2 4.4-3.4 6-6.5h0.8z"/>
    <path d="m132.3 23.6 3.1-9.5c0.7-2.1 0.5-3.3-1.4-3.4v-0.8h6.4v0.8c-1.9 0-3.1 1.2-4.1 4.2l-7.2 21.1c-1.4 4.1-3.8 6.5-5.9 6.5-0.8 0-1.3-0.2-2.2-0.8l1.1-3.1c0.7 0.3 1.1 0.4 1.7 0.4 2.2 0 3.4-1.3 4.6-4.4l2.3-6.5-6.4-14.9c-0.9-2.1-1.6-2.6-3.7-2.7v-0.8h8.6v0.8c-1.4 0.2-1.9 1.2-1.3 2.8z"/>
   </g>
   <g fill="#1976d2">
    <path d="m161 12.8-6.2 14.9h-0.8l-6-14.9-1.1 10.6c-0.2 2 0.3 3.1 2.4 3.5v0.8h-6.6v-0.8c1.9-0.3 2.7-0.9 3-3.5l1.1-11.7c-0.9-0.7-1.3-0.7-2.6-1v-0.8h5.9l5.4 13.4 5.6-13.4h5.8v0.8c-1 0.1-2.6 0.4-2.6 2 0 0.2 0.1 1.6 0.1 1.8l0.8 8.8c0.3 3.3 1.3 3.5 3.1 3.7v0.8h-8.8v-0.8c1.7-0.3 2.6-0.5 2.6-2.6l-0.1-1.4z"/>
    <path d="m177.9 23.9c0 3 0.4 3 2.2 3h2.8c1.3 0 3.1-0.1 4.1-2.6h0.8l-0.8 3.5h-15.2v-0.8c2.2-0.2 2.9-0.4 2.9-3.1v-10.1c0-2.6-0.8-2.8-2.9-3.1v-0.8h14.9l0.3 3.4h-0.8c-0.5-2.6-2.4-2.6-4-2.6h-4.3v7.7h3.2c2.7 0 2.8-1.4 2.9-2.4h0.8v5.9h-0.8c-0.1-1-0.1-2.4-2.9-2.4h-3.2z"/>
    <path d="m200.6 23.9c0 2.7 1 2.9 2.9 3.1v0.8h-9.2v-0.8c1.9-0.2 2.9-0.4 2.9-3.1v-12.8h-2.8c-3.1 0-3.4 2.4-3.5 3.5h-0.7l0.1-5.5h0.8c0.7 0.5 1.1 0.9 2.8 0.9h10c1.6 0 2-0.3 2.8-0.9h0.8l0.1 5.5h-0.7c-0.1-1-0.4-3.5-3.5-3.5h-2.8z"/>
    <path d="m216.6 18.8h2.3c2 0 4.3-0.7 4.3-4.1 0-2.4-1.1-4-3.8-4h-2.8zm-3.2-5.1c0-2.6-1-2.8-2.9-3.1v-0.8h8.9c1.4 0 7.3 0 7.3 4.7 0 1.8-1.2 3.6-4.1 4.4 1.9 0.9 2.7 2 5.2 5.5 1.7 2.3 2.6 2.3 4.2 2.5v0.8h-5.3c-1-1.1-1.4-1.5-3.9-5-2.2-3.1-3.2-3.1-4.6-3.1h-1.6v4.1c0 2.7 1 2.9 2.9 3.1v0.8h-9.1v-0.8c1.9-0.2 2.9-0.4 2.9-3.1v-10z"/>
    <path d="m240.2 23.9c0 2.7 1 2.9 2.9 3.1v0.8h-9.1v-0.8c1.9-0.2 2.9-0.4 2.9-3.1v-10.2c0-2.6-1-2.8-2.9-3.1v-0.8h9.1v0.8c-1.9 0.2-2.9 0.4-2.9 3.1z"/>
    <path d="m263.7 15.5h-0.7c-0.4-1.3-0.6-2-1.2-2.8-1.6-2.2-3.5-2.5-4.9-2.5-4.6 0-6.7 4.3-6.7 8.3 0 5.6 3.7 8.2 7.1 8.2 0.5 0 3.8 0 6.3-3.4l0.6 0.5c-0.7 1.1-2.5 4.3-8 4.3-6.4 0-9.7-5.1-9.7-9.2 0-5.4 4.9-9.5 9.8-9.5 1.6 0 3.5 0.4 4.3 0.5 0.3 0.1 0.7 0.1 1.1 0.1s0.6-0.2 1-0.5h0.7z"/>
    <path d="m278.1 14.8h-0.7c-0.3-2.8-1.8-4.6-4.4-4.6-2 0-3.1 1.4-3.1 2.6 0 1.6 0.8 2 4.7 4.3 3.2 1.9 4.4 3.9 4.4 5.9 0 2.4-2.1 5.2-5.8 5.2-0.8 0-1.5 0-3.3-0.9-0.2-0.1-0.5-0.2-0.7-0.2-0.6 0-0.7 0.4-0.8 0.7h-0.9v-5.8h0.8c0.5 2.8 1.9 5.3 4.8 5.3 1.7 0 3.4-1.1 3.4-3.1s-1.4-2.9-4.8-4.9c-1.9-1.1-4-2.5-4-5.2 0-2.4 1.8-4.7 5.2-4.7 0.7 0 1.2 0.1 1.8 0.2 1.4 0.4 1.5 0.4 1.8 0.4 0.5 0 0.8-0.3 1-0.4h0.7v5.2z"/>
    <path d="m283.7 10.4c0-0.1 0-0.1-0.1-0.2 0-0.1-0.1-0.1-0.1-0.1-0.1-0.1-0.1-0.1-0.2-0.1h-0.8v1h0.4c0.1 0 0.2 0 0.4-0.1 0.1 0 0.2-0.1 0.2-0.1 0.1-0.1 0.1-0.1 0.1-0.2 0.1 0 0.1-0.2 0.1-0.2zm1.1 2.1h-0.7l-1.1-1.1h-0.5v1.1h-0.5v-2.9h1.5c0.1 0 0.2 0.1 0.4 0.1 0.1 0.1 0.2 0.2 0.3 0.2 0.1 0.1 0.1 0.2 0.1 0.4s-0.1 0.4-0.2 0.5-0.3 0.2-0.5 0.4zm0.7-1.5c0-0.7-0.2-1.3-0.7-1.7-0.5-0.5-1-0.7-1.7-0.7s-1.3 0.2-1.7 0.7c-0.5 0.5-0.7 1-0.7 1.7s0.2 1.3 0.7 1.7c0.5 0.5 1 0.7 1.7 0.7s1.3-0.2 1.7-0.7c0.5-0.4 0.7-1 0.7-1.7zm0.4 0c0 0.8-0.3 1.4-0.8 2-0.5 0.5-1.2 0.8-2 0.8s-1.4-0.3-2-0.8c-0.5-0.5-0.8-1.2-0.8-2s0.3-1.4 0.8-2c0.5-0.5 1.2-0.8 2-0.8s1.4 0.3 2 0.8c0.5 0.6 0.8 1.3 0.8 2z"/>
   </g>
  </g>
 </g>
</svg>