<?xml version="1.0" encoding="UTF-8"?>
<svg id="Layer_2" data-name="Layer 2" xmlns="http://www.w3.org/2000/svg" viewBox="0 0 368.09 236">
  <g id="text">
    <g>
      <path d="M42.98,9.78h-16.16v48.84h-10.87V9.78H0V0h42.98v9.78Z"/>
      <path d="M67.36,37.16h-8.66v21.46h-10.87V0h19.6c6.23,0,11.04,1.54,14.42,4.63,3.38,3.09,5.07,7.45,5.07,13.08,0,4-.78,7.33-2.34,10.01-1.56,2.67-3.92,4.8-7.08,6.38l11.41,23.96v.56h-11.67l-9.89-21.46ZM58.7,27.38h8.77c2.73,0,4.84-.77,6.34-2.32,1.5-1.54,2.25-3.67,2.25-6.38s-.71-4.94-2.12-6.52c-1.41-1.58-3.58-2.38-6.5-2.38h-8.73v17.59Z"/>
      <path d="M126.06,46.54h-19.06l-3.62,12.08h-11.56L111.45,0h10.07l19.75,58.62h-11.56l-3.66-12.08ZM109.93,36.76h13.19l-6.63-21.94-6.56,21.94Z"/>
      <path d="M159.84,44.09L171.79,0h12.1l-18.37,58.62h-11.34L135.88,0h12.07l11.88,44.09Z"/>
      <path d="M219.95,33.22h-20.87v15.7h24.5v9.7h-35.37V0h35.29v9.78h-24.42v13.97h20.87v9.46Z"/>
      <path d="M240.78,48.92h23.08v9.7h-33.95V0h10.87v48.92Z"/>
      <path d="M30.62,131.53c0-2.28-.72-4.03-2.17-5.25-1.45-1.22-4.06-2.51-7.83-3.87-3.77-1.35-6.75-2.69-8.95-4.01-5.99-3.6-8.99-8.44-8.99-14.53,0-3.17.8-5.99,2.41-8.48,1.61-2.48,3.91-4.42,6.92-5.82,3.01-1.4,6.38-2.09,10.13-2.09s7.13.76,10.07,2.27c2.95,1.52,5.24,3.66,6.87,6.42,1.63,2.76,2.45,5.91,2.45,9.42h-10.87c0-2.68-.76-4.77-2.28-6.26-1.52-1.49-3.66-2.23-6.41-2.23s-4.72.62-6.2,1.87c-1.47,1.25-2.21,2.89-2.21,4.93,0,1.91.86,3.5,2.59,4.79,1.73,1.29,4.27,2.5,7.63,3.62,6.18,2.07,10.69,4.63,13.52,7.69,2.83,3.06,4.24,6.87,4.24,11.43,0,5.07-1.73,9.05-5.18,11.94-3.46,2.89-8.11,4.33-13.95,4.33-4.06,0-7.75-.83-11.09-2.48-3.33-1.65-5.88-3.91-7.63-6.78-1.75-2.87-2.63-6.2-2.63-9.98h10.91c0,6.47,3.48,9.7,10.44,9.7,2.58,0,4.6-.58,6.05-1.75,1.45-1.17,2.17-2.8,2.17-4.89Z"/>
      <path d="M87.82,98.07h-16.16v48.84h-10.87v-48.84h-15.94v-9.78h42.98v9.78Z"/>
      <path d="M116.1,134.83h-19.06l-3.62,12.08h-11.56l19.64-58.62h10.07l19.75,58.62h-11.56l-3.66-12.08ZM99.97,125.05h13.19l-6.63-21.94-6.56,21.94Z"/>
      <path d="M178.49,146.91h-10.87l-21.16-38.57v38.57h-10.87v-58.62h10.87l21.2,38.65v-38.65h10.83v58.62Z"/>
      <path d="M187.38,146.91v-58.62h16.23c4.64,0,8.79,1.16,12.45,3.48,3.66,2.32,6.52,5.62,8.57,9.9,2.05,4.28,3.08,9.15,3.08,14.59v2.7c0,5.45-1.01,10.29-3.03,14.53-2.02,4.24-4.86,7.53-8.53,9.86-3.67,2.34-7.82,3.52-12.43,3.54h-16.34ZM198.25,98.07v39.13h5.25c4.25,0,7.5-1.54,9.75-4.63,2.25-3.09,3.39-7.5,3.44-13.25v-3.1c0-5.96-1.11-10.47-3.33-13.55-2.22-3.07-5.47-4.61-9.75-4.61h-5.36Z"/>
      <path d="M261.88,134.83h-19.06l-3.62,12.08h-11.56l19.64-58.62h10.07l19.75,58.62h-11.56l-3.66-12.08ZM245.76,125.05h13.19l-6.63-21.94-6.56,21.94Z"/>
      <path d="M300.91,125.45h-8.66v21.46h-10.87v-58.62h19.6c6.23,0,11.04,1.54,14.42,4.63,3.38,3.09,5.07,7.45,5.07,13.08,0,4-.78,7.33-2.34,10.01-1.56,2.67-3.92,4.8-7.08,6.38l11.41,23.96v.56h-11.67l-9.89-21.46ZM292.25,115.66h8.77c2.73,0,4.84-.77,6.34-2.32,1.5-1.54,2.25-3.67,2.25-6.38s-.71-4.94-2.12-6.52c-1.41-1.58-3.58-2.38-6.5-2.38h-8.73v17.59Z"/>
      <path d="M327.76,146.91v-58.62h16.23c4.64,0,8.79,1.16,12.45,3.48,3.66,2.32,6.52,5.62,8.57,9.9,2.05,4.28,3.08,9.15,3.08,14.59v2.7c0,5.45-1.01,10.29-3.03,14.53-2.02,4.24-4.86,7.53-8.53,9.86-3.67,2.34-7.81,3.52-12.43,3.54h-16.34ZM338.63,98.07v39.13h5.25c4.25,0,7.5-1.54,9.75-4.63,2.25-3.09,3.39-7.5,3.44-13.25v-3.1c0-5.96-1.11-10.47-3.33-13.55-2.22-3.07-5.47-4.61-9.75-4.61h-5.36Z"/>
      <path d="M24.53,176.57h10.87v40.58c0,3.73-.74,7.03-2.23,9.88-1.49,2.86-3.58,5.07-6.29,6.62-2.71,1.56-5.76,2.34-9.17,2.34-5.58,0-9.93-1.58-13.04-4.73-3.12-3.15-4.67-7.62-4.67-13.39h10.94c0,2.87.54,4.99,1.63,6.36,1.09,1.37,2.8,2.05,5.15,2.05,2.08,0,3.73-.79,4.96-2.38,1.23-1.58,1.85-3.84,1.85-6.76v-40.58Z"/>
      <path d="M71.61,223.12h-19.06l-3.62,12.08h-11.56l19.64-58.62h10.07l19.75,58.62h-11.56l-3.66-12.08ZM55.49,213.33h13.19l-6.63-21.94-6.56,21.94Z"/>
      <path d="M101.98,214.54v20.65h-10.87v-58.62h20.58c3.96,0,7.45.81,10.45,2.42,3.01,1.61,5.32,3.9,6.94,6.86,1.62,2.97,2.43,6.34,2.43,10.13,0,5.74-1.77,10.27-5.31,13.59-3.54,3.32-8.44,4.97-14.69,4.97h-9.53ZM101.98,204.76h9.71c2.87,0,5.07-.75,6.58-2.25,1.51-1.5,2.26-3.65,2.26-6.44s-.76-5.19-2.28-6.97c-1.52-1.77-3.62-2.68-6.3-2.74h-9.96v18.4Z"/>
      <path d="M162.96,223.12h-19.06l-3.62,12.08h-11.56l19.64-58.62h10.07l19.75,58.62h-11.56l-3.66-12.08ZM146.83,213.33h13.19l-6.63-21.94-6.56,21.94Z"/>
      <path d="M225.35,235.19h-10.87l-21.16-38.57v38.57h-10.87v-58.62h10.87l21.2,38.65v-38.65h10.83v58.62Z"/>
    </g>
  </g>
</svg>